<svg width="24" height="24" viewBox="0 0 24 24" fill="none" xmlns="http://www.w3.org/2000/svg">
<path d="M17.0018 18.9999C16.7681 19.0004 16.5417 18.919 16.3618 18.7699C16.2605 18.686 16.1768 18.5829 16.1154 18.4665C16.0541 18.3502 16.0163 18.2229 16.0042 18.0919C15.9921 17.9609 16.006 17.8289 16.0451 17.7033C16.0841 17.5777 16.1476 17.461 16.2318 17.3599L20.7118 11.9999L16.3918 6.62994C16.3087 6.52765 16.2467 6.40996 16.2092 6.28362C16.1718 6.15728 16.1597 6.02479 16.1736 5.89376C16.1876 5.76273 16.2273 5.63575 16.2905 5.52011C16.3536 5.40447 16.439 5.30246 16.5418 5.21994C16.6452 5.1289 16.7664 5.06024 16.8977 5.01825C17.0289 4.97626 17.1674 4.96185 17.3045 4.97594C17.4416 4.99002 17.5743 5.03229 17.6943 5.1001C17.8143 5.1679 17.919 5.25977 18.0018 5.36994L22.8318 11.3699C22.9788 11.5489 23.0592 11.7733 23.0592 12.0049C23.0592 12.2366 22.9788 12.461 22.8318 12.6399L17.8318 18.6399C17.7314 18.761 17.604 18.8566 17.4598 18.9192C17.3156 18.9817 17.1587 19.0094 17.0018 18.9999Z" fill="#1D1D1D"/>
</svg>
