<svg width="16" height="17" viewBox="0 0 16 17" fill="none" xmlns="http://www.w3.org/2000/svg">
<path d="M14.284 7.89666L2.95067 2.56332C2.83655 2.50962 2.70953 2.4894 2.58438 2.505C2.45922 2.5206 2.34106 2.57138 2.24361 2.65145C2.14615 2.73151 2.07342 2.83758 2.03384 2.95734C1.99426 3.07709 1.98946 3.20562 2.02 3.32799L2.828 6.56066L8 8.49999L2.828 10.4393L2.02 13.672C1.98889 13.7944 1.99328 13.9232 2.03268 14.0433C2.07208 14.1633 2.14484 14.2697 2.24247 14.3499C2.3401 14.4301 2.45854 14.4809 2.58396 14.4962C2.70938 14.5116 2.83657 14.4909 2.95067 14.4367L14.284 9.10332C14.3985 9.04948 14.4954 8.96416 14.5632 8.85732C14.631 8.75048 14.6671 8.62654 14.6671 8.49999C14.6671 8.37344 14.631 8.2495 14.5632 8.14266C14.4954 8.03582 14.3985 7.95049 14.284 7.89666Z" fill="#C8C8C8"/>
</svg>
