<svg width="28" height="28" viewBox="0 0 28 28" fill="none" xmlns="http://www.w3.org/2000/svg">
<path d="M13.7388 17.208C13.8114 17.2702 13.9038 17.3045 13.9993 17.3045C14.0949 17.3045 14.1873 17.2702 14.2598 17.208L17.1658 14.708L17.8868 14.088C17.6832 13.2089 17.1876 12.4248 16.4808 11.8636C15.7741 11.3025 14.8981 10.9975 13.9957 10.9984C13.0933 10.9993 12.2178 11.3061 11.5123 11.8687C10.8067 12.4313 10.3127 13.2165 10.1108 14.096L10.8228 14.707L13.7388 17.208ZM13.9998 11.997C14.577 11.9954 15.1422 12.1617 15.6266 12.4756C16.1109 12.7895 16.4936 13.2375 16.7278 13.765L16.5138 13.949L13.9998 16.113L11.4748 13.947L11.2688 13.771C11.5026 13.2421 11.8854 12.7927 12.3704 12.4776C12.8553 12.1626 13.4215 11.9956 13.9998 11.997V11.997Z" fill="#D7D7D7"/>
<path d="M7 13C8.38071 13 9.5 11.8807 9.5 10.5C9.5 9.11929 8.38071 8 7 8C5.61929 8 4.5 9.11929 4.5 10.5C4.5 11.8807 5.61929 13 7 13Z" fill="#D7D7D7"/>
<path d="M21 13C22.3807 13 23.5 11.8807 23.5 10.5C23.5 9.11929 22.3807 8 21 8C19.6193 8 18.5 9.11929 18.5 10.5C18.5 11.8807 19.6193 13 21 13Z" fill="#D7D7D7"/>
<path d="M14 10C14.4945 10 14.9778 9.85338 15.3889 9.57868C15.8 9.30397 16.1205 8.91352 16.3097 8.45671C16.4989 7.99989 16.5484 7.49723 16.452 7.01228C16.3555 6.52733 16.1174 6.08187 15.7678 5.73223C15.4181 5.3826 14.9727 5.1445 14.4877 5.04804C14.0028 4.95157 13.5001 5.00108 13.0433 5.1903C12.5865 5.37952 12.196 5.69995 11.9213 6.11107C11.6466 6.52219 11.5 7.00555 11.5 7.5C11.5 8.16304 11.7634 8.79892 12.2322 9.26776C12.7011 9.73661 13.337 10 14 10V10ZM14 6C14.2967 6 14.5867 6.08797 14.8334 6.2528C15.08 6.41762 15.2723 6.65189 15.3858 6.92597C15.4993 7.20006 15.5291 7.50166 15.4712 7.79264C15.4133 8.08361 15.2704 8.35089 15.0607 8.56066C14.8509 8.77044 14.5836 8.9133 14.2926 8.97118C14.0017 9.02906 13.7001 8.99935 13.426 8.88582C13.1519 8.77229 12.9176 8.58003 12.7528 8.33335C12.588 8.08668 12.5 7.79668 12.5 7.5C12.5 7.10218 12.658 6.72065 12.9393 6.43934C13.2206 6.15804 13.6022 6 14 6Z" fill="#D7D7D7"/>
<path d="M21.0879 14.022C20.1841 14.0017 19.301 14.2942 18.5879 14.85V14.84L17.8149 15.465L14.2579 18.526C14.1858 18.5896 14.0931 18.6251 13.9969 18.626C13.901 18.6255 13.8085 18.5899 13.7369 18.526L10.1689 15.465L9.58293 14.989C9.54693 14.958 9.50893 14.929 9.47193 14.899L9.37193 14.817V14.823C8.6591 14.2799 7.78169 13.9976 6.88593 14.023C5.82147 14.0868 4.82282 14.5593 4.09851 15.342C3.37421 16.1246 2.98025 17.1568 2.99893 18.223V25H10.9989V19.813L11.1919 19.975L13.3369 21.775C13.5223 21.9303 13.7565 22.0155 13.9984 22.0155C14.2403 22.0155 14.4745 21.9303 14.6599 21.775L16.7989 19.975L16.9989 19.807V25H24.9989V18.224C25.0178 17.1535 24.6208 16.1174 23.8914 15.3337C23.162 14.55 22.157 14.0798 21.0879 14.022V14.022Z" fill="#D7D7D7"/>
</svg>
