<svg width="28" height="28" viewBox="0 0 28 28" fill="none" xmlns="http://www.w3.org/2000/svg">
<path d="M14 16C16.2091 16 18 14.2091 18 12C18 9.79086 16.2091 8 14 8C11.7909 8 10 9.79086 10 12C10 14.2091 11.7909 16 14 16Z" fill="#767D88"/>
<path d="M25 14C25.0011 12.0936 24.5068 10.2197 23.5656 8.56202C22.6243 6.90429 21.2684 5.51963 19.6307 4.54382C17.9931 3.568 16.13 3.03452 14.2241 2.99569C12.3182 2.95686 10.4349 3.41401 8.75884 4.32231C7.08282 5.23062 5.67162 6.55889 4.66361 8.1769C3.65559 9.79492 3.08538 11.6471 3.00887 13.5519C2.93235 15.4567 3.35216 17.3486 4.22714 19.0423C5.10212 20.736 6.40224 22.1731 8 23.213C8.45895 23.5103 8.93925 23.7734 9.437 24V24C9.78437 24.1592 10.1399 24.3 10.502 24.422H10.51C10.8535 24.5373 11.2026 24.6351 11.556 24.715C11.587 24.722 11.617 24.732 11.647 24.739C11.973 24.809 12.304 24.863 12.639 24.904C12.699 24.912 12.757 24.925 12.818 24.931C13.6035 25.019 14.3965 25.019 15.182 24.931C15.243 24.925 15.301 24.912 15.361 24.904C15.696 24.863 16.027 24.804 16.353 24.739C16.383 24.732 16.413 24.722 16.444 24.715C16.7974 24.6351 17.1465 24.5373 17.49 24.422H17.498C17.8601 24.3 18.2156 24.1592 18.563 24V24C19.0607 23.7734 19.5411 23.5103 20 23.213C21.535 22.2155 22.7965 20.8502 23.6697 19.2413C24.5429 17.6323 25.0002 15.8306 25 14V14ZM19.917 22.043C19.6909 20.6365 18.9711 19.3566 17.8868 18.4327C16.8025 17.5088 15.4245 17.0014 14 17.0014C12.5755 17.0014 11.1975 17.5088 10.1132 18.4327C9.0289 19.3566 8.30914 20.6365 8.08299 22.043C6.38389 20.7959 5.12227 19.0438 4.47826 17.0369C3.83425 15.0301 3.84079 12.8711 4.49695 10.8682C5.15311 8.86525 6.42533 7.12086 8.13196 5.88408C9.83858 4.6473 11.8923 3.98137 14 3.98137C16.1077 3.98137 18.1614 4.6473 19.868 5.88408C21.5747 7.12086 22.8469 8.86525 23.5031 10.8682C24.1592 12.8711 24.1658 15.0301 23.5217 17.0369C22.8777 19.0438 21.6161 20.7959 19.917 22.043Z" fill="#767D88"/>
</svg>
