<svg width="28" height="28" viewBox="0 0 28 28" fill="none" xmlns="http://www.w3.org/2000/svg">
<path d="M12 3.00098H4C3.73478 3.00098 3.48043 3.10633 3.29289 3.29387C3.10536 3.48141 3 3.73576 3 4.00098V12.001C3 12.2662 3.10536 12.5205 3.29289 12.7081C3.48043 12.8956 3.73478 13.001 4 13.001H12C12.2652 13.001 12.5196 12.8956 12.7071 12.7081C12.8946 12.5205 13 12.2662 13 12.001V4.00098C13 3.73576 12.8946 3.48141 12.7071 3.29387C12.5196 3.10633 12.2652 3.00098 12 3.00098ZM12 12.001H4V4.00098H12V12.001Z" fill="#D7D7D7"/>
<path d="M12.0029 15H4.00293C3.45064 15 3.00293 15.4477 3.00293 16V24C3.00293 24.5523 3.45064 25 4.00293 25H12.0029C12.5552 25 13.0029 24.5523 13.0029 24V16C13.0029 15.4477 12.5552 15 12.0029 15Z" fill="#D7D7D7"/>
<path d="M24 3H16C15.4477 3 15 3.44772 15 4V12C15 12.5523 15.4477 13 16 13H24C24.5523 13 25 12.5523 25 12V4C25 3.44772 24.5523 3 24 3Z" fill="#D7D7D7"/>
<path d="M23.0001 22.294C23.6429 21.5043 23.9958 20.5182 24.0001 19.5C24.0116 18.4669 23.6711 17.4607 23.0346 16.6469C22.3981 15.8331 21.5036 15.2602 20.4982 15.0225C19.4928 14.7847 18.4365 14.8963 17.5029 15.3388C16.5694 15.7813 15.8142 16.5284 15.3618 17.4572C14.9093 18.386 14.7865 19.4411 15.0135 20.449C15.2405 21.4568 15.8039 22.3574 16.6108 23.0025C17.4178 23.6476 18.4203 23.9989 19.4534 23.9984C20.4865 23.9979 21.4887 23.6458 22.2951 23L24.1691 24.874C24.2634 24.9651 24.3897 25.0155 24.5208 25.0143C24.6519 25.0132 24.7773 24.9606 24.87 24.8679C24.9627 24.7752 25.0153 24.6498 25.0164 24.5187C25.0175 24.3876 24.9671 24.2613 24.8761 24.167L23.0001 22.294ZM16.0001 19.5C16.0001 18.8077 16.2053 18.1311 16.5899 17.5555C16.9745 16.9799 17.5211 16.5313 18.1607 16.2664C18.8002 16.0015 19.504 15.9322 20.1829 16.0672C20.8618 16.2023 21.4855 16.5356 21.9749 17.0251C22.4644 17.5146 22.7978 18.1382 22.9328 18.8172C23.0679 19.4961 22.9986 20.1998 22.7337 20.8394C22.4687 21.4789 22.0201 22.0255 21.4446 22.4101C20.869 22.7947 20.1923 23 19.5001 23C18.5718 23 17.6816 22.6312 17.0252 21.9748C16.3688 21.3185 16.0001 20.4282 16.0001 19.5V19.5Z" fill="#D7D7D7"/>
</svg>
