<svg width="28" height="28" viewBox="0 0 28 28" fill="none" xmlns="http://www.w3.org/2000/svg">
<path d="M24.62 11.128L14.62 3.21796C14.4435 3.07845 14.225 3.00256 14 3.00256C13.775 3.00256 13.5565 3.07845 13.38 3.21796L3.38 11.128C3.26162 11.2215 3.16594 11.3406 3.10013 11.4764C3.03432 11.6122 3.00009 11.7611 3 11.912V24C3 24.2652 3.10536 24.5195 3.29289 24.7071C3.48043 24.8946 3.73478 25 4 25H9V17.151C9 16.8457 9.12127 16.5529 9.33712 16.3371C9.55297 16.1212 9.84574 16 10.151 16H17.851C18.1559 16.0005 18.4482 16.122 18.6636 16.3378C18.879 16.5536 19 16.846 19 17.151V25H24C24.2652 25 24.5196 24.8946 24.7071 24.7071C24.8946 24.5195 25 24.2652 25 24V11.912C24.9999 11.7611 24.9657 11.6122 24.8999 11.4764C24.8341 11.3406 24.7384 11.2215 24.62 11.128V11.128Z" fill="#767D88"/>
<path d="M17.5 23H10.5C10.2239 23 10 23.2239 10 23.5C10 23.7761 10.2239 24 10.5 24H17.5C17.7761 24 18 23.7761 18 23.5C18 23.2239 17.7761 23 17.5 23Z" fill="#767D88"/>
</svg>
